<?xml version="1.0" encoding="UTF-8"?> <!-- Generator: Adobe Illustrator 25.0.0, SVG Export Plug-In . SVG Version: 6.00 Build 0) --> <svg xmlns="http://www.w3.org/2000/svg" xmlns:xlink="http://www.w3.org/1999/xlink" version="1.1" id="Capa_1" x="0px" y="0px" viewBox="0 0 535.3 85.1" style="enable-background:new 0 0 535.3 85.1;" xml:space="preserve"> <g> <polygon points="535.3,0.4 462.7,0.4 438.2,24.6 456.3,42.7 474.5,24.5 511.2,24.5 "></polygon> <g> <polygon points="109.6,0.2 34.8,0.5 0,35 0,60.9 24.5,60.8 24.5,45.7 45.6,24.6 85.2,24.6 "></polygon> <polygon points="121.6,0.1 121.6,24.6 145.9,24.6 146,0.1 "></polygon> <polygon points="219.1,0.5 243.5,24.6 267.7,24.5 328.7,85.4 352.8,85.4 352.8,48.7 328.7,24.6 328.7,52 277.3,0.5 "></polygon> <rect x="328.7" width="109.4" height="24.6"></rect> <polygon points="438,85 486.4,85 517.4,55 499,36.5 474.6,60.9 413.4,60.9 "></polygon> <polygon points="377.3,24.6 377.3,85.3 401.6,85.3 401.5,48.7 "></polygon> <polygon points="206.5,24.6 206.5,24.6 206.5,24.6 "></polygon> <polygon points="162,0.1 178.1,24.6 178.1,24.6 154,60.8 146.1,60.8 145.9,36.6 60.8,36.6 85.2,60.8 121.8,60.8 121.8,85.3 165.4,85.3 166,85.3 206.5,24.6 190.4,0.2 "></polygon> <polygon points="231,61 206.5,24.6 206.5,66.9 218.7,85.1 267.7,85.1 267.7,48.7 243.5,24.6 243.2,61 "></polygon> <polygon points="24.5,73.1 36.7,85.3 85.2,85.3 85.2,60.9 24.5,60.9 "></polygon> </g> </g> </svg> 