<?xml version="1.0" encoding="UTF-8"?> <!-- Generator: Adobe Illustrator 25.0.0, SVG Export Plug-In . SVG Version: 6.00 Build 0) --> <svg xmlns="http://www.w3.org/2000/svg" xmlns:xlink="http://www.w3.org/1999/xlink" version="1.1" id="Capa_1" x="0px" y="0px" viewBox="0 0 901.4 340.9" style="enable-background:new 0 0 901.4 340.9;" xml:space="preserve"> <style type="text/css"> .st0{fill-rule:evenodd;clip-rule:evenodd;fill:#131313;} .st1{fill:#131313;} .st2{fill:#222323;} .st3{fill:none;} .st4{fill:#020101;} .st5{fill:#030202;} </style> <g> <path class="st2" d="M568.8,179.4V281h-22l-47.5-66v66h-21v-92.1l-4.8-9.5h27.2l47,66.9v-66.9H568.8z"></path> <path class="st2" d="M350.1,282.7c7.2,0,13.9-1.2,20.1-3.7c6.1-2.5,11.4-6,15.9-10.5c4.5-4.5,8-9.8,10.5-15.9c1.8-4.4,3-9,3.5-13.9 c0.2-1.9,0.6-9.6,0.2-14.2h-50l-8.9,18.3h35.7c-1.4,5.8-4.5,10.6-9.3,14.1c-4.8,3.6-10.6,5.4-17.4,5.3c-4.3,0-8.4-0.9-12.2-2.6 c-3.8-1.7-7-4-9.8-6.9c-2.8-2.9-5-6.3-6.5-10.2c-1.6-3.9-2.3-8.1-2.3-12.5c0-4.4,0.8-8.6,2.5-12.5c1.6-3.9,3.8-7.3,6.6-10.2 c2.8-2.9,6.1-5.1,9.8-6.8c3.7-1.6,7.8-2.4,12.1-2.4c5.9,0,11.1,1.4,15.6,4c4.5,2.6,8,6.4,10.5,11.3l19.7-9.5 c-4.1-8.2-10.2-14.7-18.2-19.4c-8-4.7-17.2-7-27.4-7.1c-7.2,0-14.1,1.3-20.6,4c-6.5,2.7-12.1,6.5-16.9,11.2 c-4.8,4.8-8.6,10.3-11.5,16.7c-2.8,6.4-4.3,13.2-4.3,20.4c0,7.2,1.3,14.1,4,20.4c2.7,6.4,6.4,12,11.1,16.8 c4.7,4.8,10.3,8.6,16.7,11.4C335.8,281.3,342.7,282.7,350.1,282.7z"></path> <polygon class="st2" points="186,179.4 159.2,179.4 164.3,189.9 164.3,270.5 159.2,281 220.7,281 226.3,261.1 186,261.1 "></polygon> <polygon class="st2" points="233.7,281 293.6,281 293.6,261.1 255.5,261.1 255.5,238.8 285,238.8 290.3,219.7 255.5,219.7 255.5,199.2 293.6,199.2 293.6,179.4 233.7,179.4 "></polygon> <polygon class="st2" points="407.9,281 467.9,281 467.9,261.1 429.8,261.1 429.8,238.8 459.2,238.8 464.6,219.7 429.8,219.7 429.8,199.2 467.9,199.2 467.9,179.4 407.9,179.4 "></polygon> <g> <path class="st2" d="M446.3,163.3c7.2,0,13.9-1.2,20.1-3.7c6.1-2.5,11.4-6,15.9-10.5c4.5-4.5,8-9.8,10.5-15.9 c1.8-4.4,3-9,3.5-13.9c0.2-1.9,0.6-9.6,0.2-14.2h-50l-8.9,18.3h35.7c-1.4,5.8-4.5,10.6-9.3,14.1c-4.8,3.6-10.6,5.4-17.4,5.3 c-4.3,0-8.4-0.9-12.2-2.6c-3.8-1.7-7-4-9.8-6.9c-2.8-2.9-5-6.3-6.5-10.2c-1.6-3.9-2.3-8.1-2.3-12.5c0-4.4,0.8-8.6,2.5-12.5 c1.6-3.9,3.8-7.3,6.6-10.2c2.8-2.9,6.1-5.1,9.8-6.8c3.7-1.6,7.8-2.4,12.1-2.4c5.9,0,11.1,1.4,15.6,4c4.5,2.6,8,6.4,10.5,11.3 l19.7-9.5c-4.1-8.2-10.2-14.7-18.2-19.4c-8-4.7-17.2-7-27.4-7.1c-7.2,0-14.1,1.3-20.6,4c-6.5,2.7-12.1,6.5-16.9,11.2 c-4.8,4.8-8.6,10.3-11.5,16.7c-2.8,6.4-4.3,13.2-4.3,20.4c0,7.2,1.3,14.1,4,20.4c2.7,6.4,6.4,12,11.1,16.8 c4.7,4.8,10.3,8.6,16.7,11.4C432,161.9,438.9,163.3,446.3,163.3z"></path> <polygon class="st2" points="186,60 159.2,60 164.3,70.5 164.3,151.1 159.2,161.6 220.7,161.6 226.3,141.7 186,141.7 "></polygon> <polygon class="st2" points="233.7,161.6 293.6,161.6 293.6,141.7 255.5,141.7 255.5,119.4 285,119.4 290.3,100.3 255.5,100.3 255.5,79.8 293.6,79.8 293.6,60 233.7,60 "></polygon> <polygon class="st2" points="595.2,161.6 655.1,161.6 655.1,141.7 617,141.7 617,119.4 646.4,119.4 651.8,100.3 617,100.3 617,79.8 655.1,79.8 655.1,60 595.2,60 "></polygon> <path class="st2" d="M360.8,60h-31l6.6,13l-35.8,88.7h22.3l7.6-19.8h40.3l7.8,19.8h22.7L360.8,60z M337.9,122.3L351,88.2 l12.6,34.1H337.9z"></path> <polygon class="st2" points="712,87.9 712,133.6 723.2,133.6 723.2,118.2 734.8,118.2 737.6,108.1 723.2,108.1 723.2,98.3 739.7,98.3 739.7,87.9 "></polygon> <path class="st2" d="M684.3,87c-13.1,0-23.7,10.7-23.7,23.8c0,13.1,10.6,23.8,23.7,23.8c13.1,0,23.7-10.7,23.7-23.8 C708,97.7,697.3,87,684.3,87z M684.3,123.5c-7,0-12.7-5.7-12.7-12.7c0-7,5.7-12.7,12.7-12.7c7,0,12.7,5.7,12.7,12.7 C696.9,117.8,691.3,123.5,684.3,123.5z"></path> <g> <path class="st2" d="M544.9,163.3c-6.4,0-12.1-1-17.1-3c-5-2-9.3-4.8-12.8-8.5c-3.5-3.7-6.2-8.1-8-13.3c-1.9-5.2-2.8-11-2.8-17.4 V60h22v60c0,6.9,1.6,12.3,4.8,16.2c3.2,4,7.8,5.9,13.9,5.9c6.1,0,10.7-2,13.9-5.9c3.2-4,4.8-9.4,4.8-16.2V60h22v61.2 c0,6.4-0.9,12.2-2.8,17.4s-4.6,9.7-8,13.3c-3.5,3.7-7.7,6.5-12.8,8.5C557,162.4,551.3,163.3,544.9,163.3z"></path> </g> </g> <path class="st2" d="M713.6,220.7l-13.7-2.6c-6.2-1.2-9.6-4.6-9.6-9.8c0-7,7.1-11.1,14-11.1c2.3,0,14,0.6,16.4,12.3l18.9-9.2 c-2.8-8.3-11.1-22.7-35.5-22.7c-19.6,0-35.6,14.4-35.6,32.1c0,15,10,26,26.9,29.5l13.7,2.8c6.8,1.4,10.8,5.2,10.8,10.3 c0,6.6-5.6,10.6-14.6,10.7c-10.9,0.1-19.7-8-21.1-16l-18.2,10.1c4.2,13.6,17,25.6,39.1,25.6c13.9,0,22.5-5.4,27.3-9.9 c6.1-5.8,9.6-13.7,9.6-21.8C742.1,235.8,731.2,224.1,713.6,220.7z"></path> <path class="st2" d="M660.1,210.4c-2.7-6.2-6.4-11.5-11.1-16.1c-4.7-4.5-10.2-8.1-16.4-10.7c-6.3-2.6-15.2-4.2-20-4.2h-34.4V281 h34.3c7,0,13.7-1.3,20-3.9c6.3-2.6,11.8-6.2,16.4-10.7c4.7-4.5,8.4-9.9,11.1-16.1c2.7-6.2,4.1-12.8,4.1-20 C664.2,223.2,662.8,216.6,660.1,210.4z M639.6,242.2c-1.5,3.7-3.6,6.9-6.3,9.5c-2.7,2.7-5.8,4.8-9.5,6.4c-3.7,1.6-7.6,2.4-11.7,2.4 h-12v-60.5h12.1c4.1,0,8.1,0.8,11.7,2.4c3.7,1.6,6.8,3.7,9.5,6.4c2.7,2.7,4.7,5.9,6.3,9.6c1.5,3.7,2.3,7.7,2.3,11.8 C641.9,234.6,641.1,238.6,639.6,242.2z"></path> </g> </svg> 